<svg xmlns="http://www.w3.org/2000/svg" width="513" height="499" fill="none" viewBox="0 0 513 499">
  <path fill="#9A3412" d="M237.189 0v1c107.31 0 207.008 60.523 244.947 164 39.189 106.888-2.498 228.816-96.947 291.667-23.061 15.345-52.165 30.582-80 34.333 5.183 2.023 12.733-.844 18-2.13 16.114-3.933 32-9.566 47-16.651 66.048-31.197 114.096-90.14 133.576-160.219 31.671-113.94-27.067-240.334-134.576-289.691C325.734 2.359 283.938-.005 237.189 0Z"/>
  <path fill="#7C2D12" d="M460.189 378h-1c-16.181 29.064-41.624 55.018-69 73.656-44.112 30.032-97.276 47.657-151 45.305C89.884 490.423-22.846 347.143 6.389 201c6.188-30.938 18.661-60.744 36.133-87 21.511-32.326 49.861-59.458 83.667-78.72 39.227-22.35 82.964-33.352 128-33.28 37.548.06 77.119 11.523 110 29.309 14.483 7.833 27.112 18.042 41 26.69-5.093-10.028-21.464-17.675-31-23.149-32.51-18.663-68.579-30.196-106-32.939C130.535-8.179 6.327 98.721.228 238c-6.337 144.723 120.347 273.358 266.961 259.17 59.648-5.772 115.152-29.269 158-72.17 11.874-11.889 31.034-30.123 35-47Z"/>
  <path fill="#F46413" d="M234.189 2.424c-58.505 7.682-110.854 25.542-155 66.665C57.619 89.181 40.076 113.667 26.942 140c-69.408 139.156 11.553 311.951 162.247 349.625 30.149 7.537 61.254 9.136 92 5.093C398.469 479.297 490.973 378.201 496.15 260c5.224-119.3-80.82-229.368-197.961-252.8-20.414-4.084-43.188-7.508-64-4.776Z"/>
  <path fill="#7C2D12" d="M233.189 36.424c-46.039 6.045-88.449 19.568-124.576 50.29-19.395 16.494-34.95 37.173-47.285 59.286-48.053 86.146-28.228 202.07 47.285 266.286 45.179 38.42 106.866 56.473 165.576 49.429 32.248-3.87 63.654-14.803 91-32.407 103.021-66.322 129.485-216.742 51.951-313.112-27.269-33.893-64.506-58.474-105.951-71.22-24.218-7.449-52.678-11.876-78-8.552Z"/>
  <path fill="#F46413" d="M240.189 44.425c-41.487 5.45-79.637 16.974-113.41 42.916C106.668 102.79 89.975 122.54 76.614 144c-53.394 85.765-31.957 201.528 45.999 265.28 45.232 36.99 105.091 52.585 162.576 44.435 28.508-4.042 55.537-14.98 80-29.919 19.527-11.924 36.676-27.871 50.789-45.796 70.25-89.223 53.96-226.309-38.789-293.575-19.621-14.23-41.673-25.437-65-32.134-22.519-6.465-48.554-10.946-72-7.866Z"/>
  <path fill="#9A3412" d="M460.188 121c8.459 23.238 21.704 43.583 28.116 68 12.344 47.008 9.435 96.221-6.46 142-5.701 16.418-15.795 30.899-21.656 47 12.028-10.304 18.751-33.307 23.667-48 16.788-50.183 18.124-105.497 1.663-156-5.258-16.134-12.101-41.668-25.33-53Z"/>
  <path fill="#C2410C" d="M249.189 146c3.303 14.062 15.491 28.995 22.89 41.425 8.273 13.897 14.715 30.159 25.11 42.575 1.397-7.23-5.227-15.002-8.799-21-8.847-14.854-16.989-30.125-25.804-45-3.372-5.689-6.749-15.921-13.397-18Z"/>
  <path fill="#9A3412" d="m248.189 147-31.86 57-13.14 25-2-2c-6.117 3.358-16.792-2.215-23-4.026-17.586-5.131-39.788-14.445-58-14.974v3c7.757 4.402 11.353 19.211 15.247 27l32 64c3.319 6.638 7.247 20.683 13.39 24.972 3.734 2.607 11.994 1.028 16.363 1.028 14.057 0 27.965-1.005 42-1 19.27.007 38.655 1 58 1 6.225 0 16.928 2.069 22.61-.603 7.073-3.328 12.703-22.517 16.143-29.397 9.969-19.939 19.281-40.191 29.505-60 4.93-9.552 12.825-20.378 14.742-31-3.541.464-9.466 1.071-10 5-9.532-1.69-19.917 3.197-29 5.975-14.846 4.541-30.039 7.837-45 12.025-3.131-10.644-11.433-20.542-16.894-30.156-9.501-16.727-17.812-38.952-31.106-52.844Z"/>
  <path fill="#9A3412" d="M117.189 204c3.743 5.94 16.06 7.193 22.576 9.08 19.934 5.772 40.868 12.898 61.424 15.92-3.869-5.105-15.924-6.411-22-8.14-19.462-5.54-41.775-15.936-62-16.86Z"/>
  <path fill="#C2410C" d="M381.189 206c-14.062 29.538-29.116 58.726-43.753 88-4.185 8.37-9.698 27.908-17.637 32.972-7.896 5.037-29.276 1.028-38.61 1.028h-102v1c35.049 0 69.997 1 105 1h27c3.285 0 8.515.96 11.363-1.028 8.026-5.603 13.513-25.229 17.884-33.972 14.552-29.103 31.25-57.968 43.753-88l-3-1Z"/>
  <path fill="#7C2D12" d="M120.189 211c16.426 39.453 37.461 80.097 59 117h1c-3.093-10.735-9.762-21.019-14.753-31l-29-58c-3.614-7.227-8.304-25.287-16.247-28Z"/>
  <path fill="#E3B735" d="M221.189 327v1h28l-28-1Z"/>
  <path fill="#7C2D12" d="M179.189 329v1h72l-23-1h-49Z"/>
</svg>
