<svg xmlns="http://www.w3.org/2000/svg" width="512" height="500" fill="none" viewBox="0 0 512 500">
  <path fill="#B5B5B5" d="M247.859 1.035c-24.641 3.235-49.091 5.17-73 12.6-62.42 19.398-114.608 62.51-145.691 119.975-13.321 24.628-22.572 52.259-26.44 80-4.655 33.399-3.586 67.244 5.015 100 31.76 120.941 150.611 199.959 274.116 183.718 30.276-3.981 59.083-10.21 87-23.027 67.984-31.212 119.63-94.756 136.349-167.691C535.92 172.63 450.375 33.119 313.859 5.81c-21.049-4.21-44.545-7.592-66-4.775Z"/>
  <path fill="#E1E1E1" d="M233.859 4.035c-58.505 7.682-110.854 25.542-155 66.665-21.569 20.092-39.112 44.577-52.247 70.91-69.408 139.156 11.553 311.952 162.247 349.626 30.149 7.537 61.254 9.135 92 5.092 117.28-15.421 209.784-116.516 214.961-234.717 5.227-119.371-80.759-229.356-197.961-252.8-20.414-4.084-43.188-7.509-64-4.776Z"/>
  <path fill="#C5C5C5" d="M232.859 38.035c-46.039 6.045-88.449 19.567-124.576 50.29-19.395 16.493-34.95 37.172-47.284 59.285-48.053 86.147-28.228 202.071 47.284 266.287 45.179 38.42 106.866 56.473 165.576 49.429 32.248-3.87 63.654-14.803 91-32.407 103.008-66.315 129.501-216.723 51.951-313.113-27.269-33.892-64.506-58.474-105.951-71.22-24.184-7.438-52.715-11.871-78-8.551Z"/>
  <path fill="#E1E1E1" d="M239.859 46.035c-43.239 5.68-83.155 18.146-117.576 46.295-20.416 16.697-38.047 38.095-50.654 61.28-15.154 27.866-24.34 59.228-25.73 91-5.6 127.869 115.587 228.207 238.96 210.715 28.508-4.042 55.537-14.98 80-29.919 19.527-11.924 36.676-27.871 50.789-45.796 70.279-89.26 53.933-226.328-38.789-293.574-19.621-14.23-41.673-25.437-65-32.135-22.519-6.465-48.554-10.946-72-7.866Z"/>
  <path fill="#C5C5C5" d="M202.859 230.61c-6.721-5.092-17.929-6.39-26-8.709-18.838-5.413-40.402-15.437-60-16.291l16.753 35 30.505 61 14.742 30h132c3.285 0 8.515.96 11.363-1.028 8.026-5.603 13.513-25.229 17.884-33.972 14.552-29.103 31.25-57.968 43.753-88-8.937-1.437-20.464 4.333-29 6.975-18.819 5.824-38.554 9.148-57 16.025l-12.694-26-33.306-58c-7.101 2.215-11.056 13.866-14.573 20-11.147 19.445-28.108 41.518-34.427 63Z"/>
</svg>
